<?xml version="1.0" standalone="no"?>
<!DOCTYPE svg PUBLIC "-//W3C//DTD SVG 20010904//EN"
 "http://www.w3.org/TR/2001/REC-SVG-20010904/DTD/svg10.dtd">
<svg version="1.0" xmlns="http://www.w3.org/2000/svg"
 width="980.000000pt" height="980.000000pt" viewBox="0 0 980.000000 980.000000"
 preserveAspectRatio="xMidYMid meet">

<g transform="translate(0.000000,980.000000) scale(0.100000,-0.100000)"
fill="#000000" stroke="none">
<path d="M4660 9794 c-19 -2 -87 -9 -150 -15 -1041 -99 -2007 -625 -2667
-1453 -480 -602 -768 -1327 -833 -2093 -16 -185 -8 -664 14 -823 48 -343 126
-644 248 -958 42 -108 214 -460 242 -497 14 -18 15 14 16 331 0 350 0 351 -25
420 -14 38 -41 124 -60 192 -182 630 -190 1289 -24 1922 35 130 100 329 135
408 20 45 27 52 51 52 48 0 164 38 262 85 126 61 246 141 481 321 232 178 260
197 369 255 209 110 391 390 473 729 23 94 27 248 10 335 -6 27 -8 54 -5 59 8
12 250 127 369 174 315 126 669 209 1029 242 158 14 498 12 655 -5 226 -24
250 -28 250 -35 0 -14 -96 -70 -157 -92 -51 -19 -87 -23 -298 -28 -206 -6
-249 -10 -305 -28 -93 -31 -184 -88 -246 -155 -72 -78 -96 -127 -102 -209 -5
-65 -6 -68 -31 -68 -14 0 -51 7 -81 15 -164 44 -338 -12 -424 -138 -95 -139
-99 -309 -10 -478 112 -212 336 -320 669 -323 113 -1 136 2 176 20 l47 22 83
-85 c115 -117 154 -135 291 -131 97 3 110 1 220 -35 64 -21 138 -52 163 -68
39 -25 46 -34 43 -57 -3 -26 -7 -28 -113 -49 -214 -44 -422 -41 -615 8 -71 18
-118 35 -257 96 -7 3 -4 -16 9 -49 15 -39 23 -86 27 -178 l6 -125 69 -22 c264
-86 609 -90 911 -11 102 27 149 50 191 96 51 55 77 131 78 227 1 117 -22 174
-104 255 -77 77 -128 106 -270 154 -181 61 -266 79 -335 72 l-61 -6 -93 100
c-60 65 -110 109 -142 125 -80 41 -166 30 -245 -30 -39 -30 -103 -32 -225 -11
-141 25 -212 70 -255 161 -28 58 -31 111 -8 143 19 27 58 29 164 6 96 -20 204
-13 295 20 143 52 205 168 160 297 -16 44 -16 44 12 67 61 51 84 56 333 63
271 8 314 16 465 89 100 48 190 114 292 211 l53 51 113 -37 c352 -115 692
-284 979 -486 467 -331 874 -799 1127 -1296 l52 -102 -16 -108 c-52 -358 -129
-713 -153 -713 -4 0 -58 91 -121 203 -62 111 -133 231 -156 267 -207 312 -530
495 -842 477 -117 -7 -193 -39 -258 -109 -59 -62 -78 -107 -79 -188 -1 -76 17
-118 94 -224 27 -38 50 -77 50 -86 0 -33 -64 -111 -110 -136 -73 -39 -135 -34
-236 21 -96 52 -144 58 -205 23 -72 -40 -110 -119 -130 -265 -12 -94 -6 -193
17 -289 23 -92 21 -91 105 -64 51 17 97 24 156 24 45 1 83 3 83 6 0 3 -6 14
-14 25 -21 30 -46 123 -46 170 l0 42 63 -13 c240 -51 465 62 578 290 41 84 44
95 44 170 0 93 -20 146 -85 233 -22 29 -40 55 -40 59 0 15 177 -4 231 -25 120
-46 248 -148 338 -270 27 -36 104 -165 172 -286 132 -238 180 -310 232 -349
80 -61 176 -74 265 -36 105 45 173 156 237 385 20 72 39 137 42 145 14 36 88
-335 114 -570 7 -63 13 -223 13 -355 0 -271 -16 -436 -66 -692 l-31 -162 31
-69 c53 -120 64 -180 71 -387 l6 -190 39 100 c131 342 209 678 246 1065 16
160 13 553 -5 725 -93 899 -464 1692 -1090 2334 -323 331 -633 559 -1040 766
-402 205 -837 335 -1310 391 -122 15 -605 27 -685 18z m-1769 -1058 c-25 -104
-78 -237 -131 -327 -61 -104 -123 -165 -209 -209 -84 -42 -174 -104 -361 -250
-209 -163 -420 -305 -420 -282 0 14 147 246 214 337 233 316 528 609 826 820
l95 67 3 -35 c2 -20 -6 -74 -17 -121z"/>
<path d="M4007 7646 c-26 -7 -58 -22 -70 -33 -12 -11 -141 -121 -287 -244
-146 -124 -384 -326 -529 -449 -145 -124 -296 -252 -336 -285 -164 -136 -812
-692 -834 -715 -39 -42 -74 -102 -93 -163 -17 -56 -18 -174 -18 -2753 l0
-2694 -307 0 -308 0 2 137 c1 89 5 139 13 141 24 8 110 80 145 122 21 25 55
81 76 125 154 328 41 770 -230 899 -60 28 -75 31 -161 31 -88 0 -101 -3 -162
-33 -124 -61 -223 -197 -270 -371 -29 -107 -29 -295 0 -402 42 -155 125 -281
232 -350 l50 -32 0 -133 0 -133 -408 -3 -409 -3 -36 -28 c-20 -15 -44 -41 -52
-57 -34 -67 -3 -166 65 -201 34 -18 179 -19 4818 -19 4774 0 4783 0 4822 20
92 47 107 176 28 246 -44 40 -79 44 -364 44 l-274 0 0 134 0 134 50 32 c179
115 285 391 250 650 -31 225 -143 406 -298 478 -49 23 -70 27 -152 27 -88 0
-101 -3 -163 -34 -124 -61 -224 -193 -273 -361 -29 -101 -27 -329 4 -430 48
-152 141 -284 237 -336 27 -14 35 -25 35 -46 1 -16 1 -76 1 -135 l1 -108 -306
-3 -306 -2 0 2209 c0 2110 -1 2212 -18 2268 -31 97 -87 171 -175 232 -23 15
-404 234 -847 486 -723 412 -810 459 -856 463 -97 8 -177 -35 -219 -118 -25
-49 -25 -50 -25 -345 l0 -295 -230 0 -230 0 0 293 c0 319 -6 364 -58 461 -35
65 -114 144 -181 180 -101 54 -118 56 -608 56 l-453 0 0 628 c0 389 -4 641
-10 663 -15 55 -50 100 -100 130 -56 34 -111 42 -173 25z m128 -3051 l150 0 5
650 5 650 399 3 c424 3 493 -2 534 -41 51 -47 52 -56 52 -366 l0 -290 -42 -12
c-74 -19 -157 -70 -212 -129 -93 -101 -130 -209 -124 -370 l3 -95 150 0 150 0
5 106 c6 122 19 150 83 180 39 17 70 19 400 19 l357 0 0 -2295 0 -2295 -230 0
-230 0 0 1780 c0 1265 -3 1794 -11 1832 -36 173 -191 325 -364 357 -79 15
-1930 15 -2006 1 -128 -24 -252 -113 -314 -224 -69 -123 -65 -1 -65 -1968 l0
-1778 -345 0 -345 0 2 2678 c3 2475 4 2680 20 2703 14 23 149 139 663 574 78
66 229 194 335 285 106 91 228 194 270 230 42 36 182 155 311 264 l234 199 5
-1324 5 -1324 150 0z m2608 789 c199 -114 497 -283 662 -377 407 -231 435
-248 459 -280 l21 -28 3 -2195 2 -2194 -770 0 -770 0 0 2646 c0 2376 2 2646
15 2640 9 -3 179 -99 378 -212z m-1546 -1420 c19 -9 45 -33 59 -53 l24 -36 0
-1782 0 -1783 -190 0 -190 0 0 553 0 552 -23 39 c-12 21 -38 47 -57 58 -33 17
-65 18 -622 16 l-587 -3 -32 -30 c-60 -57 -59 -43 -59 -640 l0 -545 -190 0
-190 0 0 1775 c0 1759 0 1776 20 1815 12 24 35 47 58 59 36 20 61 20 990 21
865 0 957 -2 989 -16z m-4055 -2544 c105 -109 105 -411 0 -520 -47 -49 -69
-55 -109 -31 -63 39 -113 166 -113 291 0 125 50 252 113 291 40 24 62 18 109
-31z m7883 4 c97 -97 112 -349 29 -491 -50 -86 -107 -98 -165 -35 -103 110
-107 404 -7 518 54 61 88 63 143 8z m-4435 -654 l0 -460 -380 0 -380 0 0 455
0 455 368 3 c202 1 373 3 380 5 9 1 12 -95 12 -458z"/>
<path d="M2695 5731 c-33 -14 -74 -62 -86 -100 -7 -22 -9 -106 -7 -218 3 -165
5 -184 24 -209 33 -45 70 -67 121 -71 56 -6 102 20 140 76 22 32 23 43 23 220
0 174 -2 190 -22 231 -14 27 -36 50 -58 62 -36 19 -100 23 -135 9z"/>
<path d="M3292 5720 c-67 -41 -72 -62 -72 -286 0 -192 1 -203 23 -235 64 -96
212 -87 261 15 13 28 16 70 16 228 0 175 -2 196 -20 226 -28 45 -76 72 -130
72 -27 0 -58 -8 -78 -20z"/>
<path d="M2680 4801 c-20 -10 -44 -36 -57 -61 -21 -40 -23 -56 -23 -214 0
-175 7 -225 36 -257 15 -17 18 -16 54 29 44 56 107 114 173 161 l47 34 0 105
c0 121 -14 160 -69 198 -44 30 -111 32 -161 5z"/>
<path d="M3292 4800 c-50 -31 -72 -75 -72 -147 l0 -63 150 0 150 0 0 63 c0
103 -57 167 -150 167 -27 0 -58 -8 -78 -20z"/>
<path d="M6730 4108 c-65 -45 -71 -69 -68 -290 3 -180 5 -199 24 -224 38 -51
71 -69 127 -68 59 0 95 20 130 68 21 29 22 44 25 218 3 169 2 191 -17 232 -26
59 -69 86 -137 86 -37 0 -60 -6 -84 -22z"/>
<path d="M7346 4111 c-16 -11 -38 -34 -50 -53 -19 -29 -21 -50 -24 -212 -4
-206 5 -247 65 -293 46 -35 127 -39 169 -7 67 49 69 57 72 272 3 221 -3 245
-68 290 -43 29 -122 30 -164 3z"/>
<path d="M6751 3198 c-84 -43 -86 -50 -86 -288 0 -238 2 -245 86 -288 77 -41
163 -10 200 72 16 35 19 67 19 216 0 163 -2 179 -22 220 -40 78 -123 107 -197
68z"/>
<path d="M7375 3205 c-48 -17 -80 -52 -94 -103 -6 -20 -11 -111 -11 -202 0
-152 2 -169 23 -210 45 -91 158 -114 233 -48 50 44 56 78 52 290 -3 213 -7
224 -88 266 -51 26 -61 26 -115 7z"/>
<path d="M6751 2278 c-84 -43 -86 -50 -86 -288 0 -196 1 -210 21 -237 71 -95
209 -87 262 17 20 41 22 57 22 220 0 149 -3 181 -19 216 -37 82 -123 113 -200
72z"/>
<path d="M7360 2278 c-33 -17 -51 -35 -68 -68 -22 -43 -23 -54 -20 -230 3
-165 5 -189 23 -220 56 -94 191 -98 259 -7 20 27 21 41 21 237 0 195 -1 210
-21 236 -52 70 -122 89 -194 52z"/>
<path d="M6755 1366 c-37 -17 -70 -52 -84 -89 -6 -16 -11 -106 -11 -210 0
-158 2 -187 19 -217 42 -80 148 -106 223 -55 61 42 70 81 66 298 -3 169 -5
188 -24 213 -48 64 -126 89 -189 60z"/>
<path d="M7364 1366 c-38 -17 -71 -57 -85 -105 -7 -22 -9 -104 -7 -211 3 -159
5 -178 25 -210 62 -99 213 -94 266 10 15 31 17 59 15 232 -3 181 -5 199 -24
224 -48 64 -126 89 -190 60z"/>
<path d="M3522 3500 c-53 -33 -74 -75 -69 -144 3 -54 7 -62 45 -97 l41 -39
208 0 c239 0 258 6 293 83 25 54 25 81 0 131 -39 78 -48 81 -280 84 -191 2
-207 1 -238 -18z"/>
<path d="M4440 3498 c-53 -37 -74 -72 -74 -126 0 -57 28 -108 72 -134 26 -16
58 -18 232 -18 183 0 206 2 234 19 43 27 70 77 70 131 0 57 -26 102 -74 129
-35 19 -53 21 -232 21 -186 0 -197 -1 -228 -22z"/>
<path d="M3530 2892 c-77 -42 -105 -146 -60 -220 37 -60 81 -72 280 -72 198 0
238 10 280 71 32 44 34 125 4 165 -49 67 -57 69 -272 72 -177 2 -200 1 -232
-16z"/>
<path d="M4455 2896 c-119 -53 -120 -223 -1 -277 35 -16 66 -19 216 -19 150 0
181 3 216 19 120 55 118 226 -3 277 -45 19 -385 19 -428 0z"/>
<path d="M3534 2281 c-112 -51 -114 -214 -4 -273 32 -17 55 -18 232 -16 215 3
223 5 272 72 30 40 28 121 -4 165 -42 61 -82 71 -280 71 -149 0 -181 -3 -216
-19z"/>
<path d="M4465 2285 c-49 -18 -81 -53 -95 -107 -19 -70 23 -151 93 -177 16 -6
106 -11 210 -11 204 0 233 7 274 69 36 53 39 93 12 148 -18 36 -35 54 -69 71
-41 20 -57 22 -215 22 -120 -1 -182 -5 -210 -15z"/>
</g>
</svg>
