<?xml version="1.0" standalone="no"?>
<!DOCTYPE svg PUBLIC "-//W3C//DTD SVG 20010904//EN"
 "http://www.w3.org/TR/2001/REC-SVG-20010904/DTD/svg10.dtd">
<svg version="1.0" xmlns="http://www.w3.org/2000/svg"
 width="1280.000000pt" height="1153.000000pt" viewBox="0 0 1280.000000 1153.000000"
 preserveAspectRatio="xMidYMid meet">
<g transform="translate(0.000000,1153.000000) scale(0.100000,-0.100000)"
fill="#000000" stroke="none">
<path d="M6515 11502 c-60 -42 -67 -61 -62 -182 5 -101 23 -180 44 -187 5 -2
33 45 61 105 89 188 99 233 59 270 -30 29 -53 27 -102 -6z"/>
<path d="M4659 11123 c-9 -11 -14 -43 -14 -97 0 -65 5 -90 24 -126 38 -72 197
-218 216 -198 12 11 -134 356 -171 406 -28 36 -36 39 -55 15z"/>
<path d="M7726 11078 c-4 -13 -10 -108 -13 -213 l-6 -190 21 18 c11 10 34 46
50 80 57 116 63 203 18 283 -26 46 -60 57 -70 22z"/>
<path d="M9242 10390 c-33 -17 -75 -47 -93 -67 -55 -63 -139 -263 -111 -263 5
0 80 69 166 154 123 121 156 159 156 180 0 22 -4 26 -28 26 -16 0 -56 -14 -90
-30z"/>
<path d="M3265 10294 c-34 -36 -40 -83 -21 -141 17 -50 87 -158 102 -158 13 0
17 281 4 305 -15 28 -56 25 -85 -6z"/>
<path d="M4405 9446 c-28 -12 -64 -39 -80 -59 -66 -79 -100 -128 -107 -154 -7
-27 -76 -360 -228 -1108 -98 -481 -138 -658 -153 -671 -6 -7 -160 -66 -341
-133 l-330 -121 -795 0 c-466 0 -824 -4 -864 -10 -161 -24 -289 -90 -418 -219
-155 -154 -246 -319 -411 -739 -362 -930 -566 -1548 -652 -1979 l-24 -123 24
-64 c31 -80 81 -139 148 -174 43 -22 64 -27 131 -27 70 0 87 4 133 29 66 37
122 97 160 173 16 32 62 150 102 263 39 113 190 543 335 955 145 413 266 758
270 768 6 15 18 17 89 15 l81 -3 5 -2875 c5 -2725 6 -2877 23 -2920 49 -124
138 -204 273 -246 112 -34 129 -33 273 17 107 38 188 118 235 233 21 51 21 54
26 1741 l5 1690 75 0 75 0 5 -1685 c5 -1835 1 -1694 58 -1806 25 -49 105 -125
162 -154 50 -25 168 -60 204 -60 40 0 148 31 199 57 103 52 182 156 206 271 8
38 11 870 11 2957 l0 2904 29 78 c16 43 34 89 41 103 9 19 71 54 258 147 349
172 601 327 648 398 36 55 118 356 190 700 25 122 37 156 49 144 2 -3 27 -117
55 -255 54 -266 102 -460 125 -504 47 -92 321 -277 753 -512 l49 -26 6 -108
c4 -59 7 -1411 7 -3005 0 -2109 3 -2912 11 -2951 43 -203 219 -330 433 -315
165 11 300 106 361 254 20 47 20 83 25 1743 3 932 6 1696 8 1698 1 1 35 2 76
2 58 0 75 -3 80 -16 3 -9 6 -764 6 -1678 0 -1818 -3 -1710 57 -1813 90 -155
307 -231 495 -173 112 35 194 107 246 217 l27 58 5 2945 5 2945 35 94 c29 78
41 99 70 118 19 14 112 75 205 136 207 136 349 242 431 322 55 54 64 69 88
143 49 155 117 441 196 826 22 104 42 191 45 194 3 3 8 3 11 -1 4 -3 33 -136
65 -294 71 -352 130 -610 166 -723 23 -72 34 -92 76 -132 94 -93 328 -236 657
-402 l165 -84 38 -104 37 -103 0 -2907 c0 -2114 3 -2921 11 -2960 42 -196 207
-319 411 -305 166 11 291 105 351 263 l22 59 5 1685 5 1685 68 3 c64 3 68 2
77 -23 6 -17 10 -611 10 -1684 0 -1827 -4 -1710 62 -1813 40 -63 89 -105 168
-142 59 -28 74 -31 165 -31 88 0 107 3 158 27 110 52 171 119 214 233 17 48
18 162 23 2920 l5 2870 71 3 c49 2 74 -1 81 -10 5 -7 153 -440 328 -963 175
-522 332 -981 350 -1020 43 -92 92 -147 167 -184 163 -82 325 2 394 204 8 26
13 53 10 60 -3 8 -21 92 -40 187 -55 266 -162 633 -329 1123 -120 352 -337
943 -397 1079 -125 284 -285 484 -461 576 -149 78 -98 74 -1004 80 l-810 5
-305 118 c-168 65 -310 124 -317 130 -10 11 -50 180 -88 380 -8 40 -61 317
-120 617 -173 890 -156 829 -237 887 -70 50 -123 63 -263 63 -145 0 -204 -17
-285 -81 -62 -49 -56 -30 -160 -544 -150 -739 -230 -1129 -253 -1225 l-22 -95
-245 -127 -245 -128 -756 0 -756 0 -274 114 c-151 62 -286 119 -301 126 -36
17 -31 -6 -238 1145 -45 248 -92 504 -104 570 l-24 120 -50 46 c-87 80 -207
102 -307 55z"/>
<path d="M6192 8870 c-246 -65 -449 -269 -513 -517 -27 -106 -27 -260 0 -366
66 -255 268 -453 531 -518 110 -28 280 -23 380 11 279 95 464 320 501 611 45
346 -193 691 -537 779 -102 26 -261 26 -362 0z"/>
<path d="M10330 8867 c-121 -37 -196 -83 -291 -177 -71 -71 -93 -100 -131
-180 -61 -125 -81 -209 -81 -340 1 -126 20 -215 73 -325 92 -192 265 -334 465
-381 93 -22 266 -14 348 15 225 79 385 246 457 476 30 95 38 264 17 362 -55
259 -231 463 -467 544 -100 34 -289 37 -390 6z"/>
<path d="M2215 8800 c-142 -38 -241 -97 -341 -203 -80 -85 -126 -158 -159
-254 -92 -265 -27 -552 170 -748 91 -91 175 -144 290 -182 72 -25 94 -27 220
-27 124 0 149 3 220 27 240 79 424 279 481 524 23 96 20 248 -5 346 -65 250
-269 454 -517 517 -102 26 -261 26 -359 0z"/>
</g>
</svg>
