<?xml version="1.0" standalone="no"?>
<!DOCTYPE svg PUBLIC "-//W3C//DTD SVG 20010904//EN"
 "http://www.w3.org/TR/2001/REC-SVG-20010904/DTD/svg10.dtd">
<svg version="1.0" xmlns="http://www.w3.org/2000/svg"
 width="512.000000pt" height="512.000000pt" viewBox="0 0 512.000000 512.000000"
 preserveAspectRatio="xMidYMid meet">

<g transform="translate(0.000000,512.000000) scale(0.100000,-0.100000)"
fill="#000000" stroke="none">
<path d="M2505 5105 c-651 -79 -1232 -455 -1569 -1015 -199 -330 -307 -723
-305 -1109 0 -167 11 -240 38 -262 31 -25 72 -24 100 2 23 22 23 24 16 173
-22 508 139 983 469 1380 l24 29 179 -6 c445 -16 756 -107 902 -262 71 -76 91
-128 91 -236 0 -155 -68 -255 -240 -353 -206 -117 -247 -144 -300 -196 -69
-67 -108 -143 -118 -233 -21 -168 27 -282 204 -487 162 -188 199 -246 219
-340 16 -76 82 -104 130 -55 29 28 30 41 10 120 -24 93 -87 191 -221 347 -148
172 -185 235 -192 327 -11 158 33 209 328 376 215 122 304 237 330 429 58 411
-323 666 -1065 714 l-110 7 85 68 c325 260 685 403 1102 438 364 31 777 -60
1098 -242 39 -22 83 -39 100 -39 41 0 70 31 70 74 0 45 -28 67 -186 145 -370
182 -786 254 -1189 206z"/>
<path d="M3977 4668 c-9 -7 -20 -24 -25 -38 -13 -35 4 -69 53 -110 22 -19 61
-54 87 -79 l47 -45 -75 -42 c-90 -52 -112 -69 -187 -142 -96 -94 -145 -221
-132 -347 14 -134 38 -198 167 -446 100 -192 110 -290 41 -381 -16 -20 -71
-74 -123 -120 -110 -98 -140 -135 -180 -221 -43 -91 -56 -186 -42 -300 21
-166 107 -460 242 -827 l60 -165 -27 -23 c-45 -36 -205 -129 -295 -172 -187
-87 -379 -141 -601 -170 -154 -19 -177 -31 -177 -87 0 -75 50 -86 249 -58 373
55 734 213 1032 453 95 77 278 265 351 362 219 290 359 624 414 990 24 156 24
444 0 598 -79 517 -338 989 -718 1308 -91 76 -124 89 -161 62z m324 -450 c217
-272 365 -629 409 -983 16 -128 14 -381 -5 -510 -54 -384 -223 -749 -483
-1040 -85 -97 -167 -175 -183 -175 -4 0 -16 26 -27 58 -11 31 -48 136 -82 232
-79 225 -143 450 -165 575 -13 81 -14 110 -5 163 18 106 46 147 189 282 108
101 137 134 164 189 30 61 32 73 31 161 -1 119 -21 180 -113 351 -101 186
-123 247 -129 355 -4 76 -1 98 16 136 24 55 80 119 140 160 51 35 172 98 189
98 7 0 31 -24 54 -52z"/>
<path d="M465 2625 c-5 -2 -37 -6 -69 -10 -87 -10 -109 -35 -129 -150 -36
-201 -31 -381 17 -565 27 -103 46 -137 82 -146 63 -16 106 39 86 109 -51 175
-68 389 -42 539 l12 66 79 7 c172 15 501 -44 750 -135 45 -16 96 -30 111 -30
29 0 59 23 88 69 l15 23 80 -65 c147 -119 249 -243 325 -395 87 -173 120 -316
120 -516 0 -123 -23 -306 -39 -306 -3 0 -21 34 -40 75 -78 173 -219 378 -333
480 -128 116 -332 245 -388 245 -40 0 -70 -31 -70 -73 0 -41 12 -52 110 -107
166 -93 317 -232 419 -385 52 -78 168 -302 160 -309 -2 -3 -44 7 -94 20 -49
13 -171 33 -270 44 -247 28 -313 43 -430 100 -158 78 -320 219 -416 363 -62
91 -78 107 -114 107 -38 0 -75 -35 -75 -72 0 -14 22 -59 49 -99 163 -248 435
-451 682 -508 46 -11 152 -27 234 -36 230 -24 354 -51 498 -110 16 -7 17 -36
17 -410 l0 -404 26 -20 c33 -26 65 -27 95 -2 l24 19 5 439 5 438 28 74 c90
247 95 568 11 834 -77 242 -219 449 -421 614 -207 169 -226 175 -289 96 -21
-27 -40 -50 -41 -52 -2 -2 -56 12 -120 32 -165 51 -308 84 -446 102 -105 13
-275 19 -302 10z"/>
<path d="M2875 2264 c-260 -47 -492 -164 -672 -340 -73 -71 -83 -85 -83 -116
0 -42 34 -78 74 -78 21 0 48 19 109 78 104 98 163 141 274 198 159 81 360 128
523 122 l85 -3 8 -55 c5 -30 6 -102 3 -160 -14 -287 -166 -550 -408 -707 -97
-63 -179 -90 -320 -108 -265 -33 -288 -37 -313 -57 -19 -15 -25 -29 -25 -57 0
-69 33 -81 168 -61 37 5 124 17 194 25 150 18 255 53 364 120 88 55 219 176
285 263 99 131 175 314 200 481 14 102 7 302 -15 381 -24 87 -32 90 -215 89
-87 0 -191 -7 -236 -15z"/>
<path d="M2722 1813 c-138 -85 -367 -260 -466 -355 -96 -93 -106 -119 -61
-163 41 -42 64 -34 189 74 140 122 229 189 389 295 120 80 122 82 125 122 3
44 -14 68 -58 79 -19 5 -46 -7 -118 -52z"/>
</g>
</svg>
